<svg id="Layer_1" enable-background="new 0 0 512.001 512.001" height="512" viewBox="0 0 512.001 512.001" width="512" xmlns="http://www.w3.org/2000/svg"><g><path d="m274.347 405.594c-4.346-6.372-9.271-13.594-18.347-13.594s-14 7.222-18.346 13.594c-3.437 5.04-7.314 11.416-10.917 17.953-10.442 18.95-15.737 33.569-15.737 43.453 0 24.813 20.187 45 45 45s45-20.187 45-45c0-9.884-5.295-24.503-15.738-43.453-3.601-6.537-7.478-12.913-10.915-17.953z"/><path d="m120.431 314.595c-4.345-6.372-9.27-13.594-18.346-13.594s-14.001 7.222-18.346 13.594c-3.437 5.04-7.314 11.416-10.917 17.953-10.443 18.95-15.738 33.569-15.738 43.453 0 24.813 20.187 45 45 45s45-20.187 45-45c0-9.884-5.295-24.503-15.738-43.453-3.601-6.537-7.477-12.913-10.915-17.953z"/><path d="m428.262 314.595c-4.345-6.372-9.271-13.594-18.346-13.594s-14.001 7.222-18.346 13.594c-3.438 5.041-7.314 11.416-10.917 17.953-10.443 18.95-15.738 33.569-15.738 43.453 0 24.813 20.187 45 45 45s45-20.187 45-45c0-9.884-5.295-24.503-15.738-43.453-3.601-6.537-7.478-12.913-10.915-17.953z"/><path d="m487.315 104.782c-12.108-10.685-27.322-16.969-43.19-18.095-3.629-12.756-10.703-24.348-20.614-33.53-13.53-12.535-31.145-19.438-49.598-19.438-14.554 0-28.673 4.418-40.558 12.347-5.467-10.061-12.888-19.063-21.865-26.365-15.618-12.704-35.324-19.701-55.49-19.701s-39.872 6.997-55.49 19.7c-8.977 7.302-16.397 16.304-21.864 26.365-11.886-7.929-26.005-12.347-40.559-12.347-18.454 0-36.068 6.903-49.598 19.438-9.91 9.18-16.982 20.77-20.612 33.521-37.871 2.639-67.877 34.293-67.877 72.823 0 20.918 8.989 40.854 24.662 54.697 12.061 10.653 27.211 16.938 43.02 18.102 8.528 31.039 37.104 53.701 70.406 53.701 14.679 0 28.904-4.488 40.845-12.537 5.494 9.945 12.903 18.838 21.833 26.045 15.573 12.57 35.189 19.492 55.235 19.492s39.663-6.922 55.235-19.492c8.929-7.207 16.338-16.1 21.832-26.045 11.941 8.049 26.166 12.537 40.845 12.537 33.302 0 61.878-22.662 70.406-53.701 15.808-1.165 30.96-7.45 43.021-18.102 15.672-13.843 24.661-33.779 24.661-54.697 0-20.93-8.998-40.874-24.686-54.718z"/></g></svg>